<svg width="111" height="34" viewBox="0 0 111 34" fill="none" xmlns="http://www.w3.org/2000/svg">
<path fill-rule="evenodd" clip-rule="evenodd" d="M17 34C26.3889 34 34 26.3888 34 17C34 7.61117 26.3889 0 17 0C7.61115 0 0 7.61117 0 17C0 26.3888 7.61115 34 17 34ZM22.3034 7.91932C22.5616 7.00235 21.6717 6.46011 20.859 7.03911L9.51416 15.1211C8.63279 15.749 8.77143 17 9.72241 17H12.7098V16.9769H18.5322L13.788 18.6508L11.6966 26.0807C11.4385 26.9977 12.3283 27.5399 13.141 26.9609L24.4859 18.8789C25.3673 18.251 25.2285 17 24.2776 17H19.7473L22.3034 7.91932Z" fill="#77ED91"/>
<path d="M49.2324 25C53.1245 25 56 23.291 56 19.9908C56 16.1308 52.9212 15.453 50.3071 15.011C48.4191 14.6575 46.7344 14.5101 46.7344 13.4494C46.7344 12.5064 47.6349 12.0645 48.7967 12.0645C50.1037 12.0645 51.0042 12.477 51.1784 13.8324H55.5353C55.3029 10.8564 53.0373 9 48.8257 9C45.3112 9 42.4066 10.6501 42.4066 13.8324C42.4066 17.3683 45.166 18.0755 47.751 18.5175C49.7261 18.8711 51.527 19.0184 51.527 20.3738C51.527 21.3462 50.6266 21.8766 49.2033 21.8766C47.6349 21.8766 46.6473 21.14 46.473 19.6372H42C42.1452 22.9669 44.8755 25 49.2324 25Z" fill="#77ED91"/>
<path d="M62.122 24.5C64.1423 24.5 65.4228 23.703 66.4756 22.2799H66.561V24.0731H71V9.5H66.3618V17.6404C66.3618 19.3767 65.3943 20.5721 63.8008 20.5721C62.3211 20.5721 61.6098 19.6898 61.6098 18.0958V9.5H57V19.0636C57 22.3083 58.7642 24.5 62.122 24.5Z" fill="#77ED91"/>
<path d="M72 24.5H76.5107V16.3311C76.5107 14.5949 77.3409 13.371 78.7522 13.371C80.1082 13.371 80.7447 14.2818 80.7447 15.8472V24.5H85.2553V16.3311C85.2553 14.5949 86.0579 13.371 87.4969 13.371C88.8528 13.371 89.4893 14.2818 89.4893 15.8472V24.5H94V15.0218C94 11.7486 92.395 9.5 89.1849 9.5C87.3585 9.5 85.8365 10.297 84.7296 12.0617H84.6742C83.9547 10.4962 82.5434 9.5 80.6893 9.5C78.6415 9.5 77.2855 10.4962 76.4 12.0047H76.317V9.92695H72V24.5Z" fill="#77ED91"/>
<path d="M102.985 21.5756C100.909 21.5756 99.8263 19.7454 99.8263 17C99.8263 14.2546 100.909 12.3948 102.985 12.3948C105.062 12.3948 106.174 14.2546 106.174 17C106.174 19.7454 105.062 21.5756 102.985 21.5756ZM103.015 25C107.841 25 111 21.5461 111 17C111 12.4539 107.841 9 103.015 9C98.2175 9 95 12.4539 95 17C95 21.5461 98.2175 25 103.015 25Z" fill="#77ED91"/>
</svg>
